# xmcd
#
# Track frame offsets: 
#        150
#        17858
#        37473
#        57571
#        72295
#        92169
#        106196
#        123890
#        139087
#        154317
#        172718
#        185148
#
# Disc length: 2603 seconds
#
# Revision: 3
# Processed by: cddbd v1.5.2PL0 Copyright (c) Steve Scherf et al.
# Submitted via: ExactAudioCopy v0.95b4
#
DISCID=ab0a290c
DTITLE=Diego El Cigala - Corren tiempos de alegría
DYEAR=2004
DGENRE=Flamenco
TTITLE0=Esperanza de Volar (rumba)
TTITLE1=Carmen la Canastera (bulerías)
TTITLE2=Monarcos y Republicanos (alegrías)
TTITLE3=Ana, Dolores y Aurora (tangos)
TTITLE4=Gitanos de la Cava (bulerías)
TTITLE5=Hay azules que se caen de moraos (tanguillos)
TTITLE6=Señor del Aire (guajira)
TTITLE7=La Loba (seguirilla)
TTITLE8=Corren tiempos de Alegría (buerías)
TTITLE9=Amar y Vivir (bolero)
TTITLE10=La Fuente de Bebo (bulerías)
TTITLE11=Cadencia Inesperada (nana)
EXTD=
EXTT0=
EXTT1=
EXTT2=
EXTT3=
EXTT4=
EXTT5=
EXTT6=
EXTT7=
EXTT8=
EXTT9=
EXTT10=
EXTT11=
PLAYORDER=
